PathFileType	4	(X/Y/Z)	 0.16m3min.trc
DataRate	CameraRate	NumFrames	NumMarkers	Units	OrigDataRate	OrigDataStartFrame	OrigNumFrames
200	200	9	43	m	200	125	999
Frame#	Time	C7			LSH			RSH			MAN			RASI			LASI			HIPR			HIPL			RPSI			LPSI			COX			RTHI1			RTHI2			RTHI3			RTHI4			RLKN			RMKN			RSHA1			RSHA2			RSHA3			RSHA4			RLMAL			RMMAL			RHEEL			RMET5			RMET1			RTOE			LTHI1			LTHI2			LTHI3			LTHI4			LLKN			LMKN			LSHA1			LSHA2			LSHA3			LSHA4			LLMAL			LMMAL			LHEEL			LMET5			LMET1			LTOE			
		X1	Y1	Z1	X2	Y2	Z2	X3	Y3	Z3	X4	Y4	Z4	X5	Y5	Z5	X6	Y6	Z6	X7	Y7	Z7	X8	Y8	Z8	X9	Y9	Z9	X10	Y10	Z10	X11	Y11	Z11	X12	Y12	Z12	X13	Y13	Z13	X14	Y14	Z14	X15	Y15	Z15	X16	Y16	Z16	X17	Y17	Z17	X18	Y18	Z18	X19	Y19	Z19	X20	Y20	Z20	X21	Y21	Z21	X22	Y22	Z22	X23	Y23	Z23	X24	Y24	Z24	X25	Y25	Z25	X26	Y26	Z26	X27	Y27	Z27	X28	Y28	Z28	X29	Y29	Z29	X30	Y30	Z30	X31	Y31	Z31	X32	Y32	Z32	X33	Y33	Z33	X34	Y34	Z34	X35	Y35	Z35	X36	Y36	Z36	X37	Y37	Z37	X38	Y38	Z38	X39	Y39	Z39	X40	Y40	Z40	X41	Y41	Z41	X42	Y42	Z42	X43	Y43	Z43	
125	0.6250	-0.260657	1.650040	-0.566155	-0.151016	1.647208	-0.750119	-0.198704	1.635770	-0.360940	-0.114518	1.604285	-0.547275	-0.137735	1.136959	-0.428469	-0.088077	1.142919	-0.659135	-0.209430	1.208796	-0.403452	-0.144530	1.201424	-0.711951	-0.296298	1.195414	-0.523046	-0.277070	1.196807	-0.624146	-0.291776	1.193665	-0.574489	-0.269468	0.896780	-0.387731	-0.263816	0.837438	-0.390599	-0.204268	0.839518	-0.364565	-0.202309	0.900894	-0.360342	-0.233821	0.616575	-0.400124	-0.193217	0.604758	-0.507017	-0.277351	0.488954	-0.382900	-0.295659	0.449192	-0.387631	-0.229437	0.472201	-0.394402	-0.238423	0.432039	-0.401534	-0.347908	0.224998	-0.436907	-0.290865	0.233830	-0.504147	-0.374833	0.234769	-0.505441	-0.282710	0.123451	-0.393849	-0.213262	0.119173	-0.432824	-0.197684	0.103371	-0.422313	-0.161222	0.908853	-0.752414	-0.155368	0.847445	-0.748573	-0.093045	0.849174	-0.730611	-0.090701	0.909303	-0.732350	-0.159100	0.642110	-0.726230	-0.169508	0.612172	-0.612378	-0.194852	0.475654	-0.750982	-0.201126	0.435325	-0.748009	-0.150263	0.432564	-0.713916	-0.147467	0.474205	-0.724564	-0.241435	0.231698	-0.727503	-0.216979	0.235183	-0.644551	-0.291833	0.237029	-0.668892	-0.171649	0.120368	-0.741576	-0.115888	0.112811	-0.680329	-0.101388	0.099117	-0.688648	
126	0.6300	-0.260904	1.652924	-0.566307	-0.151022	1.650266	-0.750340	-0.198715	1.638690	-0.361051	-0.114599	1.607185	-0.547464	-0.138365	1.139449	-0.428600	-0.088736	1.145195	-0.659532	-0.210260	1.210995	-0.403610	-0.145456	1.203375	-0.712295	-0.297130	1.197914	-0.523290	-0.277830	1.199457	-0.624282	-0.292491	1.196277	-0.574642	-0.269185	0.899189	-0.387612	-0.263167	0.839941	-0.390439	-0.203593	0.842328	-0.364552	-0.201993	0.903727	-0.360479	-0.232578	0.619340	-0.399984	-0.191557	0.607574	-0.506505	-0.277220	0.491906	-0.383270	-0.295886	0.452310	-0.388170	-0.229446	0.474780	-0.394828	-0.238795	0.434712	-0.402121	-0.350238	0.228905	-0.438289	-0.293136	0.237437	-0.505564	-0.377167	0.238909	-0.506896	-0.285743	0.127163	-0.395316	-0.216383	0.122359	-0.434361	-0.200917	0.106475	-0.423801	-0.160715	0.911322	-0.752400	-0.154401	0.849982	-0.748437	-0.092134	0.852228	-0.730316	-0.090240	0.912358	-0.732194	-0.158296	0.644857	-0.726224	-0.167556	0.615005	-0.612398	-0.195625	0.478590	-0.750704	-0.202240	0.438302	-0.747665	-0.151089	0.435097	-0.714041	-0.148020	0.476702	-0.724701	-0.243978	0.235088	-0.727099	-0.219324	0.238271	-0.644156	-0.294352	0.240518	-0.668334	-0.174758	0.123738	-0.741672	-0.118972	0.115602	-0.680555	-0.104577	0.101880	-0.689019	
127	0.6350	-0.261105	1.655593	-0.566442	-0.150944	1.653095	-0.750539	-0.198699	1.641382	-0.361171	-0.114666	1.609822	-0.547647	-0.139044	1.141770	-0.428721	-0.089448	1.147360	-0.659976	-0.211227	1.212942	-0.403791	-0.146579	1.205109	-0.712676	-0.298053	1.200046	-0.523549	-0.278690	1.201738	-0.624379	-0.293289	1.198517	-0.574819	-0.268992	0.901411	-0.387524	-0.262648	0.842217	-0.390297	-0.203083	0.844953	-0.364467	-0.201804	0.906375	-0.360558	-0.231344	0.621871	-0.399858	-0.189968	0.610169	-0.506045	-0.276971	0.494612	-0.383589	-0.295990	0.455175	-0.388651	-0.229353	0.477147	-0.395268	-0.239053	0.437165	-0.402710	-0.352457	0.232592	-0.439604	-0.295331	0.240844	-0.506934	-0.379389	0.242886	-0.508260	-0.288686	0.130586	-0.396814	-0.219424	0.125266	-0.435963	-0.204069	0.109293	-0.425370	-0.160288	0.913604	-0.752424	-0.153519	0.852334	-0.748375	-0.091285	0.855081	-0.730162	-0.089839	0.915213	-0.732162	-0.157348	0.647400	-0.726172	-0.165547	0.617623	-0.612399	-0.196235	0.481299	-0.750380	-0.203213	0.441065	-0.747293	-0.151845	0.437391	-0.714043	-0.148456	0.478950	-0.724717	-0.246547	0.238301	-0.726698	-0.221792	0.241190	-0.643738	-0.296971	0.243841	-0.667832	-0.177895	0.126951	-0.741680	-0.122159	0.118247	-0.680618	-0.107841	0.104527	-0.689200	
128	0.6400	-0.261262	1.658045	-0.566567	-0.150794	1.655687	-0.750717	-0.198657	1.643825	-0.361307	-0.114717	1.612203	-0.547819	-0.139762	1.143922	-0.428837	-0.090204	1.149420	-0.660458	-0.212313	1.214666	-0.403991	-0.147885	1.206656	-0.713084	-0.299050	1.201827	-0.523824	-0.279632	1.203664	-0.624434	-0.294162	1.200377	-0.574983	-0.268894	0.903455	-0.387478	-0.262253	0.844282	-0.390181	-0.202740	0.847372	-0.364324	-0.201745	0.908801	-0.360572	-0.230132	0.624156	-0.399735	-0.188508	0.612542	-0.505657	-0.276630	0.497075	-0.383866	-0.295982	0.457808	-0.389067	-0.229175	0.479291	-0.395712	-0.239215	0.439398	-0.403296	-0.354514	0.236019	-0.440812	-0.297418	0.244034	-0.508233	-0.381477	0.246635	-0.509498	-0.291478	0.133698	-0.398313	-0.222331	0.127890	-0.437589	-0.207090	0.111828	-0.426971	-0.159958	0.915699	-0.752504	-0.152745	0.854498	-0.748402	-0.090524	0.857718	-0.730179	-0.089514	0.917854	-0.732277	-0.156261	0.649713	-0.726069	-0.163540	0.620029	-0.612373	-0.196657	0.483781	-0.750013	-0.204019	0.443617	-0.746892	-0.152511	0.439447	-0.713911	-0.148766	0.480954	-0.724602	-0.249101	0.241343	-0.726304	-0.224358	0.243953	-0.643294	-0.299653	0.246988	-0.667384	-0.181003	0.130021	-0.741600	-0.125406	0.120750	-0.680513	-0.111137	0.107050	-0.689190	
129	0.6450	-0.261381	1.660276	-0.566680	-0.150609	1.658029	-0.750894	-0.198585	1.646023	-0.361442	-0.114757	1.614333	-0.547984	-0.140505	1.145905	-0.428953	-0.090998	1.151376	-0.660969	-0.213493	1.216183	-0.404213	-0.149347	1.208036	-0.713510	-0.300098	1.203258	-0.524095	-0.280639	1.205229	-0.624447	-0.295095	1.201884	-0.575138	-0.268886	0.905286	-0.387481	-0.261966	0.846132	-0.390107	-0.202546	0.849560	-0.364134	-0.201803	0.910985	-0.360527	-0.228970	0.626194	-0.399613	-0.187203	0.614678	-0.505355	-0.276228	0.499299	-0.384105	-0.295905	0.460187	-0.389423	-0.228939	0.481209	-0.396146	-0.239306	0.441402	-0.403857	-0.356413	0.239181	-0.441932	-0.299369	0.246981	-0.509440	-0.383421	0.250102	-0.510600	-0.294079	0.136485	-0.399786	-0.225061	0.130245	-0.439206	-0.209928	0.114087	-0.428574	-0.159740	0.917607	-0.752639	-0.152101	0.856463	-0.748516	-0.089864	0.860126	-0.730375	-0.089278	0.920275	-0.732539	-0.155041	0.651790	-0.725920	-0.161607	0.622219	-0.612310	-0.196882	0.486032	-0.749614	-0.204649	0.445947	-0.746468	-0.153080	0.441274	-0.713644	-0.148942	0.482720	-0.724351	-0.251608	0.244215	-0.725917	-0.226991	0.246562	-0.642837	-0.302363	0.249956	-0.667016	-0.184039	0.132941	-0.741437	-0.128672	0.123104	-0.680242	-0.114433	0.109453	-0.689010	
130	0.6500	-0.261467	1.662281	-0.566786	-0.150377	1.660114	-0.751057	-0.198486	1.647969	-0.361576	-0.114785	1.616206	-0.548138	-0.141265	1.147717	-0.429072	-0.091829	1.153222	-0.661497	-0.214759	1.217499	-0.404453	-0.150929	1.209256	-0.713940	-0.301191	1.204358	-0.524363	-0.281701	1.206467	-0.624434	-0.296075	1.203034	-0.575281	-0.268958	0.906904	-0.387536	-0.261775	0.847745	-0.390095	-0.202466	0.851487	-0.363938	-0.201958	0.912919	-0.360441	-0.227873	0.627975	-0.399487	-0.186067	0.616574	-0.505124	-0.275806	0.501274	-0.384309	-0.295779	0.462323	-0.389715	-0.228671	0.482885	-0.396553	-0.239346	0.443185	-0.404381	-0.358126	0.242049	-0.442937	-0.301162	0.249664	-0.510540	-0.385194	0.253275	-0.511568	-0.296461	0.138943	-0.401203	-0.227570	0.132332	-0.440783	-0.212542	0.116076	-0.430143	-0.159644	0.919315	-0.752801	-0.151595	0.858233	-0.748712	-0.089314	0.862296	-0.730747	-0.089130	0.922470	-0.732950	-0.153707	0.653630	-0.725737	-0.159800	0.624186	-0.612204	-0.196912	0.488054	-0.749195	-0.205100	0.448059	-0.746023	-0.153543	0.442880	-0.713246	-0.148979	0.484268	-0.723982	-0.254040	0.246913	-0.725546	-0.229646	0.249011	-0.642374	-0.305071	0.252763	-0.666741	-0.186965	0.135707	-0.741200	-0.131922	0.125309	-0.679813	-0.117689	0.111707	-0.688661	
131	0.6550	-0.261521	1.664055	-0.566888	-0.150105	1.661934	-0.751210	-0.198363	1.649656	-0.361700	-0.114796	1.617825	-0.548279	-0.142034	1.149345	-0.429198	-0.092686	1.154945	-0.662032	-0.216082	1.218618	-0.404707	-0.152603	1.210331	-0.714365	-0.302320	1.205143	-0.524630	-0.282808	1.207372	-0.624390	-0.297087	1.203835	-0.575449	-0.269093	0.908289	-0.387642	-0.261656	0.849116	-0.390171	-0.202483	0.853146	-0.363769	-0.202192	0.914590	-0.360354	-0.226866	0.629502	-0.399360	-0.185094	0.618227	-0.504946	-0.275393	0.502993	-0.384476	-0.295640	0.464206	-0.389951	-0.228412	0.484337	-0.396923	-0.239364	0.444739	-0.404850	-0.359629	0.244601	-0.443803	-0.302775	0.252062	-0.511514	-0.386780	0.256147	-0.512399	-0.298589	0.141065	-0.402535	-0.229828	0.134141	-0.442286	-0.214894	0.117806	-0.431648	-0.159664	0.920831	-0.752997	-0.151221	0.859798	-0.748975	-0.088870	0.864227	-0.731282	-0.089072	0.924434	-0.733494	-0.152289	0.655228	-0.725539	-0.158136	0.625944	-0.612055	-0.196757	0.489855	-0.748771	-0.205365	0.449953	-0.745575	-0.153899	0.444274	-0.712736	-0.148883	0.485612	-0.723512	-0.256373	0.249426	-0.725194	-0.232299	0.251306	-0.641916	-0.307748	0.255386	-0.666558	-0.189743	0.138312	-0.740898	-0.135107	0.127356	-0.679244	-0.120865	0.113809	-0.688153	
132	0.6600	-0.261552	1.665610	-0.566984	-0.149802	1.663479	-0.751355	-0.198218	1.651074	-0.361817	-0.114789	1.619195	-0.548408	-0.142805	1.150777	-0.429335	-0.093564	1.156521	-0.662564	-0.217427	1.219562	-0.404980	-0.154338	1.211263	-0.714783	-0.303464	1.205622	-0.524880	-0.283950	1.207973	-0.624330	-0.298121	1.204294	-0.575584	-0.269282	0.909435	-0.387801	-0.261600	0.850262	-0.390303	-0.202551	0.854529	-0.363647	-0.202475	0.915966	-0.360305	-0.225969	0.630786	-0.399225	-0.184272	0.619627	-0.504796	-0.275026	0.504460	-0.384609	-0.295507	0.465844	-0.390134	-0.228181	0.485563	-0.397248	-0.239379	0.446066	-0.405251	-0.360919	0.246809	-0.444525	-0.304194	0.254159	-0.512346	-0.388180	0.258663	-0.513083	-0.300441	0.142841	-0.403765	-0.231815	0.135672	-0.443678	-0.216959	0.119275	-0.433057	-0.159794	0.922136	-0.753198	-0.150975	0.861150	-0.749276	-0.088534	0.865917	-0.731967	-0.089094	0.926150	-0.734154	-0.150824	0.656580	-0.725337	-0.156628	0.627479	-0.611867	-0.196443	0.491435	-0.748357	-0.205472	0.451630	-0.745139	-0.154163	0.445469	-0.712141	-0.148677	0.486755	-0.722959	-0.258585	0.251744	-0.724869	-0.234910	0.253418	-0.641477	-0.310358	0.257813	-0.666462	-0.192356	0.140719	-0.740540	-0.138187	0.129243	-0.678553	-0.123924	0.115735	-0.687503	
133	0.6650	-0.261561	1.666939	-0.567074	-0.149477	1.664749	-0.751494	-0.198052	1.652233	-0.361907	-0.114775	1.620310	-0.548527	-0.143574	1.152008	-0.429484	-0.094456	1.157926	-0.663091	-0.218778	1.220316	-0.405273	-0.156092	1.212052	-0.715188	-0.304618	1.205817	-0.525114	-0.285099	1.208271	-0.624242	-0.299168	1.204447	-0.575712	-0.269513	0.910319	-0.388011	-0.261604	0.851158	-0.390483	-0.202662	0.855636	-0.363600	-0.202788	0.917079	-0.360320	-0.225217	0.631836	-0.399093	-0.183564	0.620774	-0.504652	-0.274719	0.505676	-0.384704	-0.295409	0.467206	-0.390268	-0.227994	0.486574	-0.397509	-0.239405	0.447164	-0.405569	-0.362008	0.248664	-0.445107	-0.305410	0.255936	-0.513026	-0.389377	0.260814	-0.513612	-0.302005	0.144280	-0.404872	-0.233504	0.136945	-0.444941	-0.218705	0.120491	-0.434348	-0.160018	0.923223	-0.753395	-0.150845	0.862278	-0.749584	-0.088291	0.867361	-0.732752	-0.089188	0.927615	-0.734906	-0.149341	0.657693	-0.725151	-0.155289	0.628785	-0.611652	-0.196003	0.492796	-0.747977	-0.205448	0.453088	-0.744733	-0.154357	0.446474	-0.711494	-0.148393	0.487700	-0.722357	-0.260671	0.253838	-0.724575	-0.237442	0.255331	-0.641078	-0.312879	0.260022	-0.666451	-0.194802	0.142893	-0.740139	-0.141129	0.130958	-0.677781	-0.126838	0.117485	-0.686748	
